# xmcd
#
# Track frame offsets: 
#        150
#        27400
#        48850
#        101287
#        151575
#        211175
#
# Disc length: 4096 seconds
#
# Revision: 2
# Processed by: cddbd v1.5.2PL0 Copyright (c) Steve Scherf et al.
# Submitted via: ExactAudioCopy v0.99pb4
#
DISCID=3a0ffe06
DTITLE=Glod - Gnosis
DYEAR=1995
DGENRE=Ritual
TTITLE0=Black Song For A Dead Sun
TTITLE1=Overmind
TTITLE2=Redgnosis
TTITLE3=Breath Of Fire
TTITLE4=Return To Zero
TTITLE5=Molecular Noisefloor
EXTD=
EXTT0=
EXTT1=
EXTT2=
EXTT3=
EXTT4=
EXTT5=
PLAYORDER=
